<svg xmlns="http://www.w3.org/2000/svg" viewBox="0 0 640 480" role="img" aria-labelledby="title desc">
  <title id="title">Dog playing fetch in a meadow</title>
  <desc id="desc">Illustrated scene of a happy dog chasing a ball across a sunny meadow with trees and clouds.</desc>
  <defs>
    <linearGradient id="sky2" x1="0%" x2="0%" y1="0%" y2="100%">
      <stop offset="0%" stop-color="#bbdefb" />
      <stop offset="100%" stop-color="#e3f2fd" />
    </linearGradient>
    <linearGradient id="meadow" x1="0%" x2="0%" y1="0%" y2="100%">
      <stop offset="0%" stop-color="#81c784" />
      <stop offset="100%" stop-color="#4caf50" />
    </linearGradient>
  </defs>
  <rect width="640" height="320" fill="url(#sky2)" />
  <rect y="320" width="640" height="160" fill="url(#meadow)" />
  <g fill="#ffffff" opacity="0.8">
    <ellipse cx="160" cy="120" rx="70" ry="28" />
    <ellipse cx="220" cy="110" rx="40" ry="18" />
    <ellipse cx="460" cy="90" rx="60" ry="24" />
  </g>
  <g fill="#33691e">
    <ellipse cx="200" cy="360" rx="160" ry="45" opacity="0.4" />
    <ellipse cx="420" cy="365" rx="150" ry="40" opacity="0.4" />
  </g>
  <g transform="translate(420 230)">
    <path d="M-120 120c0 24 18 44 40 44h60c22 0 40-20 40-44s-18-44-40-44h-60c-22 0-40 20-40 44z" fill="#ffe082" />
    <circle cx="-60" cy="80" r="22" fill="#ffe082" />
    <path d="M-72 72c-10 0-18 8-18 18s8 18 18 18 18-8 18-18-8-18-18-18z" fill="#f57c00" />
    <ellipse cx="-48" cy="74" rx="6" ry="4" fill="#424242" />
    <ellipse cx="-84" cy="74" rx="6" ry="4" fill="#424242" />
    <path d="M-84 84c4 6 14 6 18 0" stroke="#424242" stroke-width="3" fill="none" stroke-linecap="round" />
    <path d="M-40 96l24 12" stroke="#f57c00" stroke-width="6" stroke-linecap="round" />
    <circle cx="-10" cy="50" r="14" fill="#ffab91" />
    <circle cx="-6" cy="48" r="5" fill="#ef6c00" />
  </g>
  <g transform="translate(150 250)">
    <path d="M0 0c-28 0-52 22-56 50l-10 64h132l-10-64c-4-28-28-50-56-50z" fill="#4dd0e1" />
    <path d="M-42 110c0 26 20 46 44 46s44-20 44-46" fill="#26c6da" />
    <circle cx="0" cy="-20" r="36" fill="#ffb74d" />
    <circle cx="-12" cy="-26" r="6" fill="#424242" />
    <circle cx="12" cy="-26" r="6" fill="#424242" />
    <path d="M-10 -12c6 8 20 8 26 0" stroke="#424242" stroke-width="3" fill="none" stroke-linecap="round" />
    <path d="M-52 120l-18 36" stroke="#00695c" stroke-width="8" stroke-linecap="round" />
    <path d="M52 120l18 36" stroke="#00695c" stroke-width="8" stroke-linecap="round" />
    <circle cx="-64" cy="144" r="14" fill="#ff7043" />
    <circle cx="64" cy="144" r="14" fill="#ff7043" />
  </g>
  <circle cx="512" cy="180" r="16" fill="#ff6f00" />
</svg>
