<svg xmlns="http://www.w3.org/2000/svg" viewBox="0 0 640 480" role="img" aria-labelledby="title desc">
  <title id="title">Dog walker with two dogs in a park</title>
  <desc id="desc">Illustrated scene of a smiling person walking two dogs through a stylised park with trees and hills.</desc>
  <defs>
    <linearGradient id="sky" x1="0%" x2="0%" y1="0%" y2="100%">
      <stop offset="0%" stop-color="#cfe8ff" />
      <stop offset="100%" stop-color="#f0f8ff" />
    </linearGradient>
    <linearGradient id="grass" x1="0%" x2="0%" y1="0%" y2="100%">
      <stop offset="0%" stop-color="#72d572" />
      <stop offset="100%" stop-color="#3cb371" />
    </linearGradient>
  </defs>
  <rect width="640" height="320" fill="url(#sky)" />
  <rect y="320" width="640" height="160" fill="url(#grass)" />
  <g fill="#b3e5fc">
    <circle cx="120" cy="160" r="60" />
    <circle cx="540" cy="140" r="70" />
  </g>
  <g fill="#2e7d32">
    <ellipse cx="200" cy="360" rx="140" ry="40" />
    <ellipse cx="420" cy="360" rx="150" ry="45" />
  </g>
  <g transform="translate(260 210)">
    <ellipse cx="60" cy="150" rx="35" ry="18" fill="#1b5e20" opacity="0.2" />
    <path d="M60 40c-12 0-22 10-22 22v76h44V62c0-12-10-22-22-22z" fill="#ffcc80" />
    <path d="M46 70h28v68H46z" fill="#1976d2" />
    <path d="M46 138l-10 32h18l6-20 6 20h18l-10-32z" fill="#0d47a1" />
    <circle cx="60" cy="30" r="28" fill="#ffe082" />
    <circle cx="52" cy="28" r="4" fill="#424242" />
    <circle cx="68" cy="28" r="4" fill="#424242" />
    <path d="M52 38c4 6 12 6 16 0" stroke="#424242" stroke-width="2" fill="none" stroke-linecap="round" />
  </g>
  <g transform="translate(190 290)">
    <ellipse cx="0" cy="46" rx="28" ry="12" fill="#1b5e20" opacity="0.25" />
    <path d="M-36 30c0 18 14 32 32 32s32-14 32-32-14-32-32-32-32 14-32 32z" fill="#795548" />
    <circle cx="-12" cy="14" r="12" fill="#6d4c41" />
    <circle cx="-20" cy="12" r="4" fill="#212121" />
    <circle cx="-4" cy="12" r="4" fill="#212121" />
    <path d="M-20 22c4 4 8 4 12 0" stroke="#212121" stroke-width="2" fill="none" stroke-linecap="round" />
    <path d="M-4 32l18 12" stroke="#5d4037" stroke-width="4" stroke-linecap="round" />
  </g>
  <g transform="translate(420 300)">
    <ellipse cx="0" cy="40" rx="30" ry="12" fill="#1b5e20" opacity="0.25" />
    <path d="M-40 20c0 20 16 36 36 36s36-16 36-36-16-36-36-36-36 16-36 36z" fill="#ffab91" />
    <circle cx="-16" cy="2" r="12" fill="#f48fb1" />
    <circle cx="-22" cy="0" r="4" fill="#424242" />
    <circle cx="-10" cy="0" r="4" fill="#424242" />
    <path d="M-24 10c5 5 10 5 15 0" stroke="#424242" stroke-width="2" fill="none" stroke-linecap="round" />
    <path d="M-4 24l18 10" stroke="#f57c00" stroke-width="4" stroke-linecap="round" />
  </g>
  <path d="M230 300h180" stroke="#424242" stroke-width="4" stroke-linecap="round" stroke-dasharray="6 10" />
</svg>
