<svg xmlns="http://www.w3.org/2000/svg" width="160" height="160" viewBox="0 0 160 160">
  <defs>
    <linearGradient id="bgGradient" x1="0%" y1="0%" x2="100%" y2="100%">
      <stop offset="0%" stop-color="#1a6b52" />
      <stop offset="100%" stop-color="#104235" />
    </linearGradient>
    <linearGradient id="shadowGradient" x1="50%" y1="0%" x2="50%" y2="100%">
      <stop offset="0%" stop-color="#f1d8b5" />
      <stop offset="100%" stop-color="#d3a278" />
    </linearGradient>
  </defs>
  <circle cx="80" cy="80" r="78" fill="url(#bgGradient)" />
  <g transform="translate(34 36)">
    <path d="M46 0c-14.4 0-26 12.7-26 28.3 0 5.2.9 10.5-1.2 14.7-1.9 3.7-6.5 6.4-10.5 8.9 4.6 12.1 19 20.1 37.7 20.1s33.1-8 37.7-20.1c-4-2.4-8.6-5.2-10.5-8.9-2.1-4.2-1.2-9.5-1.2-14.7C72 12.7 60.4 0 46 0z" fill="url(#shadowGradient)" />
    <path d="M18.5 55.2c5.4 6.5 15.5 10.8 27.5 10.8s22.1-4.3 27.5-10.8c-4.2-2.2-7.6-4.7-9.3-8.1-1.8-3.5-1.1-8-1.1-12.1C63.1 19.5 55.9 11 46 11s-17.1 8.5-17.1 24c0 4.1.7 8.6-1.1 12.1-1.7 3.4-5.1 5.9-9.3 8.1z" fill="#f4dbb8" />
    <path d="M30.8 33.2c0-4.1 3-7.4 6.8-7.4s6.8 3.3 6.8 7.4" fill="none" stroke="#5f3f2c" stroke-width="2.8" stroke-linecap="round" />
    <g fill="#5f3f2c">
      <circle cx="28" cy="38.5" r="4" />
      <circle cx="64" cy="38.5" r="4" />
    </g>
    <path d="M34.5 52c3.5 4.4 8.9 6.9 15 6.9s11.5-2.5 15-6.9" stroke="#5f3f2c" stroke-width="2.4" stroke-linecap="round" fill="none" />
  </g>
  <path d="M80 150c-24 0-45.2-11.9-54-29.6 6.8-4.7 15.7-8 26.4-9.3 3.5-.4 9.6 3.2 13.3 2.8 11.7-1.3 28.7-1.3 40.4 0 3.7.4 9.8-3.2 13.3-2.8 10.7 1.3 19.6 4.6 26.4 9.3C125.2 138.1 104 150 80 150z" fill="#0b3328" opacity="0.6" />
</svg>
