<svg xmlns="http://www.w3.org/2000/svg" viewBox="0 0 360 420" role="img" aria-labelledby="title desc">
  <title id="title">Portrait of a friendly dog walker with a happy dog</title>
  <desc id="desc">Stylised illustration of a smiling person in a teal jacket holding the lead of a cheerful dog.</desc>
  <defs>
    <linearGradient id="bg" x1="0%" x2="0%" y1="0%" y2="100%">
      <stop offset="0%" stop-color="#e1f5fe" />
      <stop offset="100%" stop-color="#fffde7" />
    </linearGradient>
  </defs>
  <rect width="360" height="420" rx="24" fill="url(#bg)" />
  <circle cx="180" cy="120" r="60" fill="#fff" opacity="0.7" />
  <circle cx="180" cy="118" r="48" fill="#ffcc80" />
  <circle cx="162" cy="112" r="6" fill="#424242" />
  <circle cx="198" cy="112" r="6" fill="#424242" />
  <path d="M162 132c8 10 20 10 28 0" stroke="#424242" stroke-width="4" fill="none" stroke-linecap="round" />
  <path d="M120 220c0-46 26-84 60-84s60 38 60 84v88H120z" fill="#26a69a" />
  <path d="M120 280h120v28c0 22-18 40-40 40h-40c-22 0-40-18-40-40z" fill="#00897b" />
  <path d="M132 308l-36 56" stroke="#00695c" stroke-width="10" stroke-linecap="round" />
  <path d="M228 308l36 56" stroke="#00695c" stroke-width="10" stroke-linecap="round" />
  <g transform="translate(70 260)">
    <path d="M80 80c0 28-22 50-50 50s-50-22-50-50 22-50 50-50 50 22 50 50z" fill="#ffb74d" />
    <circle cx="30" cy="40" r="10" fill="#424242" />
    <circle cx="60" cy="40" r="10" fill="#424242" />
    <path d="M32 60c8 10 18 10 26 0" stroke="#424242" stroke-width="5" fill="none" stroke-linecap="round" />
    <path d="M48 80l26 18" stroke="#f57c00" stroke-width="8" stroke-linecap="round" />
    <path d="M12 80L-8 118" stroke="#f57c00" stroke-width="8" stroke-linecap="round" />
    <circle cx="-16" cy="126" r="14" fill="#ff7043" />
    <circle cx="96" cy="108" r="14" fill="#ff7043" />
  </g>
  <path d="M172 292l-32 48" stroke="#004d40" stroke-width="8" stroke-linecap="round" />
  <path d="M188 292l32 48" stroke="#004d40" stroke-width="8" stroke-linecap="round" />
</svg>
